<svg width="42" height="52" viewBox="0 0 42 52" fill="none" xmlns="http://www.w3.org/2000/svg">
<path d="M2 6L8 15L8.5 52H0L2 50V6Z" fill="#FFFDFD"/>
<path d="M40 46L34 37V-3.8147e-06H42L40 2V46Z" fill="#FFFDFD"/>
<path d="M0 0H6.63158L7.73684 1.65957H0V0Z" fill="#FFFDFD"/>
<path d="M0 1.65957V0H1.65789L38.1316 52H35.3684L0 1.65957Z" fill="#FFFDFD"/>
<path d="M3.86842 0H6.63158L42 50.3404V52H40.3421L3.86842 0Z" fill="#FFFDFD"/>
<path d="M3.86842 0H6.63158L42 50.3404V52H40.3421L3.86842 0Z" fill="#FFFDFD"/>
<path d="M34.2632 50.3404H42V52H35.3684L34.2632 50.3404Z" fill="#FFFDFD"/>
</svg>
