<svg xmlns="http://www.w3.org/2000/svg" xmlns:xlink="http://www.w3.org/1999/xlink" width="512" zoomAndPan="magnify" viewBox="0 0 384 383.999986" height="512" preserveAspectRatio="xMidYMid meet" version="1.0"><defs><clipPath id="e4fad4ac90"><path d="M 183 18.617188 L 201 18.617188 L 201 44 L 183 44 Z M 183 18.617188 " clip-rule="nonzero"/></clipPath><clipPath id="38ed73470f"><path d="M 0 43 L 384 43 L 384 365.117188 L 0 365.117188 Z M 0 43 " clip-rule="nonzero"/></clipPath></defs><g clip-path="url(#e4fad4ac90)"><path fill="#daae43" d="M 183.117188 38.765625 L 183.117188 33.109375 C 187.003906 28.777344 189.746094 24.007812 191.957031 18.617188 C 194.253906 24.007812 196.996094 28.777344 200.796875 33.109375 L 200.796875 38.765625 L 196.375 43.710938 L 191.957031 38.765625 L 187.535156 43.710938 Z M 183.117188 38.765625 " fill-opacity="1" fill-rule="evenodd"/></g><path fill="#daae43" d="M 301.570312 220 C 296.621094 220.53125 285.039062 223.976562 280.265625 225.832031 C 284.066406 219.46875 295.472656 214.253906 302.101562 211.429688 C 311.648438 207.363281 324.820312 204.359375 335.25 199.851562 C 341.085938 197.378906 345.769531 193.667969 349.835938 189.867188 C 358.410156 181.824219 364.863281 170.160156 365.925781 158.320312 C 369.550781 167.070312 372.996094 177.496094 371.9375 186.863281 C 370.964844 196.230469 367.78125 201.621094 360.445312 208.335938 C 353.550781 214.699219 344.972656 218.230469 334.367188 220 C 323.492188 221.765625 312.355469 218.851562 301.570312 220 Z M 191.957031 350.070312 C 181.257812 338.585938 172.597656 327.449219 155.359375 325.773438 C 137.855469 324.09375 129.371094 335.492188 117.082031 347.507812 C 107.179688 357.140625 98.695312 361.472656 84.460938 360.324219 C 77.214844 359.703125 60.683594 352.546875 58.03125 343.886719 C 68.90625 348.660156 93.390625 337.789062 102.320312 332.664062 C 114.785156 325.417969 126.363281 319.410156 139.445312 313.3125 C 129.371094 307.921875 116.464844 300.941406 104.707031 300.941406 C 93.125 300.941406 82.074219 305.535156 71.554688 310.21875 C 66.074219 312.695312 61.125 314.992188 55.027344 314.992188 C 36.195312 314.992188 26.914062 302.972656 20.816406 285.917969 C 28.683594 288.835938 37.699219 292.371094 47.070312 291.222656 C 54.582031 290.335938 61.214844 287.773438 68.199219 285.210938 C 75.621094 282.472656 84.375 280.972656 92.242188 280.972656 C 104.792969 280.972656 114.253906 287.597656 123.359375 295.464844 C 117.699219 272.046875 102.761719 249.335938 75.710938 249.335938 C 63.160156 249.335938 50.339844 257.378906 38.140625 254.992188 C 22.316406 252.074219 12.683594 242.089844 9.058594 229.277344 C 7.113281 222.03125 7.203125 213.636719 8.703125 205.683594 C 19.222656 219.203125 30.980469 228.039062 48.484375 229.453125 C 59.535156 230.425781 70.320312 227.246094 81.457031 228.304688 C 92.859375 229.453125 101.082031 232.722656 109.480469 241.117188 C 113.371094 244.917969 117.964844 253.753906 118.496094 254.816406 C 120.617188 240.675781 115.667969 227.777344 105.589844 218.320312 C 93.390625 206.921875 76.242188 201.621094 59.535156 194.816406 C 45.65625 189.25 34.429688 181.824219 29.742188 166.980469 C 23.820312 148.425781 31.15625 121.828125 45.566406 107.246094 C 44.59375 120.941406 47.6875 135.964844 55.378906 147.453125 C 65.28125 162.210938 81.546875 169.71875 95.6875 179.617188 C 124.417969 199.675781 128.132812 237.496094 127.601562 244.386719 C 130.960938 233.695312 135.203125 222.121094 135.46875 210.808594 C 135.734375 196.671875 129.546875 179.96875 120.972656 168.128906 C 106.386719 147.894531 92.859375 130.839844 94.980469 106.1875 C 98.074219 70.664062 131.402344 44.949219 164.023438 35.140625 C 163.757812 36.289062 150.761719 52.285156 146.785156 59.882812 C 137.855469 77.027344 132.550781 91.074219 132.464844 110.425781 C 132.375 125.183594 136.707031 138.617188 143.601562 151.515625 C 153.679688 170.425781 161.457031 189.691406 160.484375 210.808594 C 159.25 236.257812 138.03125 247.65625 131.84375 269.75 C 126.363281 289.453125 147.933594 294.050781 161.636719 294.667969 C 175.160156 295.199219 182.496094 301.824219 191.957031 311.367188 C 201.503906 301.824219 208.839844 295.199219 222.363281 294.667969 C 236.066406 294.050781 257.636719 289.453125 252.066406 269.75 C 245.96875 247.65625 224.75 236.257812 223.515625 210.808594 C 222.542969 189.691406 230.320312 170.425781 240.398438 151.515625 C 247.292969 138.617188 251.625 125.183594 251.535156 110.425781 C 251.449219 91.074219 246.144531 77.027344 237.128906 59.882812 C 233.238281 52.285156 220.15625 36.289062 219.976562 35.140625 C 252.507812 44.949219 285.835938 70.664062 289.019531 106.1875 C 291.140625 130.839844 277.527344 147.894531 262.941406 168.128906 C 254.453125 179.96875 248.175781 196.671875 248.53125 210.808594 C 248.796875 222.121094 252.949219 233.695312 256.308594 244.386719 C 255.78125 237.496094 259.582031 199.675781 288.3125 179.617188 C 302.453125 169.71875 318.632812 162.210938 328.621094 147.453125 C 336.3125 135.964844 339.40625 120.941406 338.433594 107.246094 C 352.84375 121.828125 360.179688 148.425781 354.257812 166.980469 C 349.484375 181.824219 338.257812 189.25 324.464844 194.816406 C 307.671875 201.621094 290.519531 206.921875 278.410156 218.320312 C 268.332031 227.777344 263.382812 240.675781 265.503906 254.816406 C 266.035156 253.753906 270.628906 244.917969 274.519531 241.117188 C 282.828125 232.722656 291.140625 229.453125 302.542969 228.304688 C 313.679688 227.246094 324.464844 230.425781 335.515625 229.453125 C 352.929688 228.039062 364.777344 219.203125 375.296875 205.683594 C 376.710938 213.636719 376.886719 222.03125 374.851562 229.277344 C 371.316406 242.089844 361.59375 252.074219 345.859375 254.992188 C 333.660156 257.378906 320.839844 249.335938 308.289062 249.335938 C 281.238281 249.335938 266.210938 272.046875 260.640625 295.464844 C 269.746094 287.597656 279.207031 280.972656 291.667969 280.972656 C 299.625 280.972656 308.378906 282.472656 315.714844 285.210938 C 322.785156 287.773438 329.417969 290.335938 336.929688 291.222656 C 346.300781 292.371094 355.316406 288.835938 363.183594 285.917969 C 357.085938 302.972656 347.804688 314.992188 328.972656 314.992188 C 322.875 314.992188 317.925781 312.695312 312.355469 310.21875 C 301.835938 305.535156 290.875 300.941406 279.292969 300.941406 C 267.535156 300.941406 254.628906 307.921875 244.554688 313.3125 C 257.636719 319.410156 269.128906 325.417969 281.679688 332.664062 C 290.609375 337.789062 315.09375 348.660156 325.96875 343.886719 C 323.316406 352.546875 306.699219 359.703125 299.539062 360.324219 C 285.304688 361.472656 276.730469 357.140625 266.917969 347.507812 C 254.542969 335.492188 246.144531 324.09375 228.554688 325.773438 C 211.402344 327.449219 202.742188 338.585938 191.957031 350.070312 Z M 304.398438 258.261719 C 316.15625 257.730469 324.199219 261.441406 336.398438 262.945312 C 352.84375 264.976562 363.625 259.585938 372.910156 252.519531 C 371.40625 272.578125 354.433594 283.796875 336.664062 281.765625 C 321.371094 280 306.699219 272.132812 291.316406 272.132812 C 285.214844 272.132812 280.441406 274.253906 274.875 276.640625 C 277.703125 264.976562 293.703125 258.703125 304.398438 258.261719 Z M 325.878906 125.539062 C 324.464844 141.796875 312.972656 150.367188 300.773438 158.851562 C 284.332031 170.25 267.890625 181.824219 258.078125 199.941406 C 258.875 191.015625 262.410156 182.089844 267.625 174.84375 C 280.796875 156.289062 295.472656 142.769531 299.273438 119.527344 C 302.277344 101.855469 291.582031 70.042969 285.925781 59.441406 C 290.875 60.679688 298.210938 67.039062 301.925781 70.664062 C 318.191406 86.65625 327.824219 103.269531 325.878906 125.539062 Z M 325.351562 322.589844 C 332.6875 322.945312 337.902344 321.617188 344.972656 319.320312 C 340.996094 330.011719 330.832031 336.375 319.425781 336.730469 C 310.320312 336.996094 300.773438 333.371094 292.90625 327.273438 C 286.101562 321.972656 267.273438 312.515625 260.730469 312.605469 C 269.660156 309.953125 276.113281 308.539062 285.480469 309.425781 C 299.539062 310.660156 310.851562 321.796875 325.351562 322.589844 Z M 58.5625 322.589844 C 73.148438 321.796875 84.460938 310.660156 98.519531 309.425781 C 107.886719 308.539062 114.339844 309.953125 123.179688 312.605469 C 116.640625 312.515625 97.898438 321.972656 91.003906 327.273438 C 83.136719 333.371094 73.679688 336.996094 64.574219 336.730469 C 53.167969 336.375 43.003906 330.011719 39.027344 319.320312 C 46.097656 321.617188 51.3125 322.945312 58.5625 322.589844 Z M 58.121094 125.539062 C 56.175781 103.269531 65.808594 86.65625 82.074219 70.664062 C 85.699219 67.039062 93.039062 60.679688 98.074219 59.441406 C 92.417969 70.042969 81.722656 101.855469 84.640625 119.527344 C 88.527344 142.769531 103.113281 156.289062 116.375 174.84375 C 121.589844 182.089844 125.125 191.015625 125.921875 199.941406 C 116.109375 181.824219 99.667969 170.25 83.226562 158.851562 C 71.027344 150.367188 59.535156 141.796875 58.121094 125.539062 Z M 79.601562 258.261719 C 90.207031 258.703125 106.207031 264.976562 109.125 276.640625 C 103.558594 274.253906 98.785156 272.132812 92.683594 272.132812 C 77.300781 272.132812 62.628906 280 47.335938 281.765625 C 29.566406 283.796875 12.59375 272.578125 11.089844 252.519531 C 20.375 259.585938 31.15625 264.976562 47.601562 262.945312 C 59.800781 261.441406 67.84375 257.730469 79.601562 258.261719 Z M 82.339844 220 C 71.644531 218.851562 60.417969 221.765625 49.632812 220 C 39.027344 218.230469 30.449219 214.699219 23.554688 208.335938 C 16.21875 201.621094 13.035156 196.230469 12.0625 186.863281 C 11.003906 177.496094 14.449219 167.070312 18.074219 158.320312 C 19.136719 170.160156 25.589844 181.824219 34.164062 189.867188 C 38.230469 193.667969 42.828125 197.378906 48.75 199.851562 C 59.179688 204.359375 72.351562 207.363281 81.898438 211.429688 C 88.527344 214.253906 99.933594 219.46875 103.644531 225.832031 C 98.960938 223.976562 87.378906 220.53125 82.339844 220 Z M 82.339844 220 " fill-opacity="1" fill-rule="evenodd"/><g clip-path="url(#38ed73470f)"><path fill="#daae43" d="M 119.644531 401.148438 C 119.644531 409.808594 116.464844 413.429688 111.335938 413.429688 C 106.386719 413.429688 103.027344 409.71875 103.027344 401.148438 L 103.027344 380.382812 C 103.027344 374.902344 98.074219 371.722656 93.480469 371.808594 L 93.480469 400.351562 C 93.480469 414.578125 99.84375 421.117188 111.070312 421.117188 C 122.296875 421.117188 129.28125 414.488281 129.28125 400.261719 L 129.28125 371.808594 C 124.683594 371.722656 119.644531 374.195312 119.644531 380.382812 C 119.644531 386.566406 119.644531 394.253906 119.644531 401.148438 Z M 159.867188 289.277344 C 163.050781 278.761719 166.230469 264.710938 167.292969 250.925781 L 183.203125 43.710938 L 187.269531 48.128906 L 178.429688 294.492188 C 173.746094 291.574219 168.441406 289.71875 161.636719 289.453125 C 161.105469 289.367188 160.484375 289.367188 159.867188 289.277344 Z M 195.226562 47.160156 L 203.003906 296.257812 C 199.292969 298.910156 195.84375 302.265625 191.957031 306.066406 C 188.15625 302.265625 184.707031 298.910156 180.996094 296.257812 L 188.773438 47.160156 L 191.957031 43.625 Z M 205.570312 294.492188 L 196.730469 48.128906 L 200.707031 43.710938 L 216.707031 250.925781 C 217.769531 264.710938 220.949219 278.761719 224.042969 289.277344 C 223.515625 289.367188 222.894531 289.367188 222.363281 289.453125 C 215.558594 289.71875 210.253906 291.574219 205.570312 294.492188 Z M 16.574219 434.105469 L 13.035156 434.105469 L 13.035156 450.894531 C 13.035156 456.375 11.179688 458.761719 8.261719 458.761719 C 5.609375 458.761719 3.667969 456.464844 3.667969 450.894531 L 3.667969 434.105469 L 0.128906 434.105469 L 0.128906 450.632812 C 0.128906 458.9375 3.402344 462.296875 8.175781 462.296875 C 13.125 462.296875 16.574219 458.761719 16.574219 450.542969 Z M 35.046875 449.660156 C 35.046875 443.472656 32.128906 441.441406 29.480469 441.441406 C 27.003906 441.441406 25.234375 443.121094 24.441406 444.886719 L 24.351562 444.886719 L 24.175781 441.882812 L 21.082031 441.882812 C 21.082031 443.5625 21.167969 445.328125 21.167969 447.539062 L 21.167969 461.851562 L 24.703125 461.851562 L 24.703125 449.835938 C 24.703125 446.65625 26.5625 444.886719 28.328125 444.886719 C 30.714844 444.886719 31.511719 447.273438 31.511719 450.101562 L 31.511719 461.851562 L 35.046875 461.851562 Z M 43.355469 436.40625 C 43.355469 434.992188 42.472656 433.929688 41.324219 433.929688 C 40.085938 433.929688 39.203125 434.992188 39.203125 436.40625 C 39.203125 437.730469 40.085938 438.789062 41.234375 438.789062 C 42.5625 438.789062 43.355469 437.730469 43.355469 436.40625 Z M 43.003906 441.882812 L 39.46875 441.882812 L 39.46875 461.851562 L 43.003906 461.851562 Z M 57.324219 441.882812 L 54.582031 452.574219 C 54.140625 454.253906 53.789062 455.933594 53.523438 457.613281 L 53.347656 457.613281 C 53.082031 455.933594 52.726562 454.253906 52.285156 452.488281 L 49.546875 441.882812 L 45.742188 441.882812 L 51.578125 461.851562 L 54.9375 461.851562 L 61.035156 441.882812 Z M 75.359375 458.054688 C 74.207031 458.582031 72.972656 459.027344 71.113281 459.027344 C 68.460938 459.027344 66.074219 457.347656 65.988281 452.839844 L 76.683594 452.839844 C 76.773438 452.308594 76.773438 451.78125 76.773438 451.074219 C 76.773438 446.125 74.828125 441.441406 70.140625 441.441406 C 65.367188 441.441406 62.628906 446.210938 62.628906 452.132812 C 62.628906 458.230469 65.546875 462.296875 70.585938 462.296875 C 72.882812 462.296875 74.738281 461.675781 75.886719 461.058594 Z M 66.074219 449.835938 C 66.253906 447.539062 67.3125 444.445312 69.875 444.445312 C 72.617188 444.445312 73.414062 447.449219 73.414062 449.835938 Z M 88.617188 441.53125 C 88.265625 441.441406 88.085938 441.441406 87.734375 441.441406 C 85.878906 441.441406 84.109375 443.03125 83.402344 445.507812 L 83.226562 445.507812 L 83.136719 441.882812 L 80.042969 441.882812 C 80.132812 443.738281 80.132812 445.683594 80.132812 447.980469 L 80.132812 461.851562 L 83.667969 461.851562 L 83.667969 451.25 C 83.667969 447.804688 85.167969 445.507812 87.558594 445.507812 C 88 445.507812 88.265625 445.507812 88.617188 445.59375 Z M 100.464844 442.589844 C 99.578125 441.972656 98.164062 441.441406 96.484375 441.441406 C 92.949219 441.441406 90.652344 444.09375 90.652344 447.449219 C 90.652344 449.746094 91.976562 451.78125 94.980469 453.195312 C 97.015625 454.164062 97.722656 454.960938 97.722656 456.550781 C 97.722656 458.054688 96.75 459.113281 94.894531 459.113281 C 93.480469 459.113281 91.886719 458.40625 91.003906 457.789062 L 90.296875 460.882812 C 91.359375 461.675781 93.039062 462.296875 94.804688 462.296875 C 98.605469 462.296875 101.082031 459.996094 101.082031 456.109375 C 101.082031 453.195312 99.667969 451.425781 96.839844 450.101562 C 94.804688 449.039062 94.097656 448.332031 94.097656 446.917969 C 94.097656 445.59375 94.894531 444.535156 96.484375 444.535156 C 97.898438 444.535156 99.046875 445.152344 99.667969 445.683594 Z M 108.417969 436.40625 C 108.417969 434.992188 107.535156 433.929688 106.386719 433.929688 C 105.148438 433.929688 104.265625 434.992188 104.265625 436.40625 C 104.265625 437.730469 105.058594 438.789062 106.296875 438.789062 C 107.625 438.789062 108.417969 437.730469 108.417969 436.40625 Z M 108.066406 441.882812 L 104.527344 441.882812 L 104.527344 461.851562 L 108.066406 461.851562 Z M 113.28125 441.882812 L 110.980469 441.882812 L 110.980469 445.0625 L 113.28125 445.0625 L 113.28125 455.402344 C 113.28125 457.964844 113.722656 459.644531 114.605469 460.703125 C 115.3125 461.675781 116.464844 462.296875 117.878906 462.296875 C 119.113281 462.296875 120 462.03125 120.617188 461.765625 L 120.53125 458.582031 C 120.085938 458.671875 119.644531 458.761719 118.9375 458.761719 C 117.433594 458.761719 116.816406 457.613281 116.816406 455.136719 L 116.816406 445.0625 L 120.792969 445.0625 L 120.792969 441.882812 L 116.816406 441.882812 L 116.816406 436.933594 L 113.28125 438.261719 Z M 135.644531 449.570312 C 135.644531 445.328125 134.230469 441.441406 129.28125 441.441406 C 127.070312 441.441406 125.039062 442.238281 123.886719 443.121094 L 124.597656 445.859375 C 125.65625 445.0625 127.246094 444.535156 128.75 444.535156 C 132.109375 444.535156 132.109375 447.539062 132.109375 448.953125 C 126.363281 448.953125 122.738281 451.425781 122.738281 456.375 C 122.738281 459.46875 124.507812 462.296875 127.601562 462.296875 C 129.722656 462.296875 131.402344 461.058594 132.375 459.554688 L 132.464844 459.554688 L 132.640625 461.851562 L 135.910156 461.851562 C 135.644531 460.527344 135.644531 458.761719 135.644531 457.082031 Z M 132.199219 455.136719 C 132.199219 457.433594 130.605469 459.203125 128.664062 459.203125 C 127.335938 459.203125 126.1875 458.230469 126.1875 455.933594 C 126.1875 452.398438 129.371094 451.78125 132.199219 451.78125 Z M 149.171875 442.589844 C 148.285156 441.972656 146.871094 441.441406 145.191406 441.441406 C 141.65625 441.441406 139.359375 444.09375 139.359375 447.449219 C 139.359375 449.746094 140.683594 451.78125 143.691406 453.195312 C 145.722656 454.164062 146.429688 454.960938 146.429688 456.550781 C 146.429688 458.054688 145.457031 459.113281 143.601562 459.113281 C 142.1875 459.113281 140.597656 458.40625 139.800781 457.789062 L 139.003906 460.882812 C 140.066406 461.675781 141.746094 462.296875 143.511719 462.296875 C 147.3125 462.296875 149.789062 459.996094 149.789062 456.109375 C 149.789062 453.195312 148.375 451.425781 145.546875 450.101562 C 143.511719 449.039062 142.804688 448.332031 142.804688 446.917969 C 142.804688 445.59375 143.601562 444.535156 145.191406 444.535156 C 146.605469 444.535156 147.757812 445.152344 148.464844 445.683594 Z M 176.929688 434.105469 L 173.746094 434.105469 L 173.746094 444.355469 C 173.746094 448.777344 173.835938 452.308594 174.097656 456.109375 L 174.011719 456.109375 C 172.949219 453.195312 171.625 450.011719 170.210938 446.917969 L 164.109375 434.105469 L 160.308594 434.105469 L 160.308594 461.851562 L 163.492188 461.851562 L 163.492188 451.515625 C 163.492188 446.566406 163.492188 443.03125 163.316406 439.496094 L 163.402344 439.496094 C 164.464844 442.589844 165.878906 445.859375 167.292969 448.863281 L 173.390625 461.851562 L 176.929688 461.851562 Z M 193.371094 458.054688 C 192.222656 458.582031 190.984375 459.027344 189.128906 459.027344 C 186.476562 459.027344 184.089844 457.347656 184 452.839844 L 194.695312 452.839844 C 194.785156 452.308594 194.785156 451.78125 194.785156 451.074219 C 194.785156 446.125 192.929688 441.441406 188.15625 441.441406 C 183.46875 441.441406 180.640625 446.210938 180.640625 452.132812 C 180.640625 458.230469 183.558594 462.296875 188.597656 462.296875 C 190.894531 462.296875 192.75 461.675781 193.902344 461.058594 Z M 184.089844 449.835938 C 184.265625 447.539062 185.324219 444.445312 187.976562 444.445312 C 190.628906 444.445312 191.515625 447.449219 191.425781 449.835938 Z M 209.105469 441.882812 L 208.929688 444.535156 L 208.839844 444.535156 C 208.132812 442.945312 206.808594 441.441406 204.242188 441.441406 C 200.617188 441.441406 197.171875 445.242188 197.171875 451.957031 C 197.171875 457.613281 199.910156 461.765625 203.800781 461.765625 C 206.011719 461.765625 207.691406 460.527344 208.488281 458.761719 L 208.574219 458.761719 L 208.574219 460.703125 C 208.574219 465.300781 206.628906 467.066406 203.890625 467.066406 C 201.945312 467.066406 200.355469 466.359375 199.292969 465.652344 L 198.496094 468.921875 C 199.824219 469.894531 201.855469 470.335938 203.800781 470.335938 C 211.757812 470.335938 212.109375 463.003906 212.109375 459.027344 L 212.109375 447.625 C 212.109375 444.976562 212.109375 443.296875 212.199219 441.882812 Z M 208.574219 453.546875 C 208.574219 456.816406 206.71875 458.496094 204.863281 458.496094 C 202.296875 458.496094 200.796875 455.757812 200.796875 451.78125 C 200.796875 447.539062 202.476562 444.800781 204.949219 444.800781 C 207.070312 444.800781 208.574219 446.917969 208.574219 449.570312 Z M 228.289062 458.054688 C 227.136719 458.582031 225.902344 459.027344 224.042969 459.027344 C 221.394531 459.027344 219.007812 457.347656 218.917969 452.839844 L 229.613281 452.839844 C 229.703125 452.308594 229.703125 451.78125 229.703125 451.074219 C 229.703125 446.125 227.847656 441.441406 223.070312 441.441406 C 218.386719 441.441406 215.558594 446.210938 215.558594 452.132812 C 215.558594 458.230469 218.476562 462.296875 223.515625 462.296875 C 225.8125 462.296875 227.667969 461.675781 228.816406 461.058594 Z M 219.007812 449.835938 C 219.183594 447.539062 220.242188 444.445312 222.894531 444.445312 C 225.546875 444.445312 226.429688 447.449219 226.34375 449.835938 Z M 241.546875 441.53125 C 241.28125 441.441406 241.015625 441.441406 240.664062 441.441406 C 238.808594 441.441406 237.128906 443.03125 236.332031 445.507812 L 236.242188 445.507812 L 236.066406 441.882812 L 232.972656 441.882812 C 233.0625 443.738281 233.148438 445.683594 233.148438 447.980469 L 233.148438 461.851562 L 236.6875 461.851562 L 236.6875 451.25 C 236.6875 447.804688 238.1875 445.507812 240.488281 445.507812 C 240.929688 445.507812 241.28125 445.507812 241.546875 445.59375 Z M 248.175781 436.40625 C 248.175781 434.992188 247.292969 433.929688 246.144531 433.929688 C 244.90625 433.929688 244.023438 434.992188 244.023438 436.40625 C 244.023438 437.730469 244.820312 438.789062 246.054688 438.789062 C 247.382812 438.789062 248.175781 437.730469 248.175781 436.40625 Z M 247.824219 441.882812 L 244.289062 441.882812 L 244.289062 461.851562 L 247.824219 461.851562 Z M 271.160156 434.992188 C 270.101562 434.371094 268.507812 433.664062 266.210938 433.664062 C 261.613281 433.664062 258.695312 437.023438 258.695312 441.351562 C 258.695312 445.152344 260.996094 447.625 264.441406 449.304688 C 267.273438 450.71875 268.421875 452.132812 268.421875 454.519531 C 268.421875 456.992188 266.917969 458.671875 264.089844 458.671875 C 262.234375 458.671875 260.289062 457.964844 259.050781 457.082031 L 258.253906 460.617188 C 259.402344 461.5 261.703125 462.296875 263.914062 462.296875 C 269.128906 462.296875 272.046875 458.761719 272.046875 454.164062 C 272.046875 450.367188 270.277344 447.890625 266.476562 445.949219 C 263.558594 444.445312 262.234375 443.296875 262.234375 440.910156 C 262.234375 439.144531 263.382812 437.199219 266.121094 437.199219 C 268.066406 437.199219 269.570312 437.90625 270.277344 438.4375 Z M 289.28125 441.882812 L 285.746094 441.882812 L 285.746094 454.253906 C 285.746094 457.257812 283.890625 458.761719 282.210938 458.761719 C 279.914062 458.761719 279.117188 456.464844 279.117188 453.015625 L 279.117188 441.882812 L 275.582031 441.882812 L 275.582031 453.722656 C 275.582031 460.085938 278.054688 462.296875 280.972656 462.296875 C 283.714844 462.296875 285.304688 460.351562 286.011719 458.9375 L 286.101562 458.9375 L 286.277344 461.851562 L 289.460938 461.851562 C 289.371094 460.261719 289.28125 458.40625 289.28125 456.109375 Z M 302.277344 441.53125 C 301.925781 441.441406 301.746094 441.441406 301.394531 441.441406 C 299.539062 441.441406 297.769531 443.03125 296.972656 445.507812 L 296.886719 445.507812 L 296.796875 441.882812 L 293.703125 441.882812 C 293.792969 443.738281 293.792969 445.683594 293.792969 447.980469 L 293.792969 461.851562 L 297.328125 461.851562 L 297.328125 451.25 C 297.328125 447.804688 298.832031 445.507812 301.21875 445.507812 C 301.660156 445.507812 301.925781 445.507812 302.277344 445.59375 Z M 316.773438 449.570312 C 316.773438 445.328125 315.359375 441.441406 310.410156 441.441406 C 308.199219 441.441406 306.253906 442.238281 305.019531 443.121094 L 305.726562 445.859375 C 306.785156 445.0625 308.378906 444.535156 309.878906 444.535156 C 313.238281 444.535156 313.238281 447.539062 313.238281 448.953125 C 307.492188 448.953125 303.867188 451.425781 303.867188 456.375 C 303.867188 459.46875 305.636719 462.296875 308.820312 462.296875 C 310.851562 462.296875 312.53125 461.058594 313.503906 459.554688 L 313.59375 459.554688 L 313.769531 461.851562 L 317.039062 461.851562 C 316.773438 460.527344 316.773438 458.761719 316.773438 457.082031 Z M 313.328125 455.136719 C 313.328125 457.433594 311.738281 459.203125 309.792969 459.203125 C 308.464844 459.203125 307.316406 458.230469 307.316406 455.933594 C 307.316406 452.398438 310.585938 451.78125 313.328125 451.78125 Z M 324.730469 444.710938 L 324.730469 432.78125 L 321.195312 432.78125 L 321.195312 456.550781 C 321.195312 458.320312 321.105469 460.527344 321.105469 461.851562 L 324.113281 461.851562 L 324.289062 458.847656 L 324.378906 458.847656 C 325.527344 461.234375 327.207031 462.296875 329.328125 462.296875 C 332.773438 462.296875 336.398438 458.847656 336.398438 451.515625 C 336.398438 445.507812 333.746094 441.441406 329.859375 441.441406 C 327.558594 441.441406 325.792969 442.679688 324.820312 444.710938 Z M 324.730469 450.011719 C 324.730469 447.363281 326.410156 444.800781 328.621094 444.800781 C 331.449219 444.800781 332.773438 447.980469 332.773438 451.78125 C 332.773438 456.019531 331.273438 458.847656 328.621094 458.847656 C 326.234375 458.847656 324.730469 456.464844 324.730469 453.988281 Z M 351.605469 449.570312 C 351.605469 445.328125 350.277344 441.441406 345.328125 441.441406 C 343.03125 441.441406 341.085938 442.238281 339.847656 443.121094 L 340.644531 445.859375 C 341.703125 445.0625 343.207031 444.535156 344.710938 444.535156 C 348.066406 444.535156 348.066406 447.539062 348.066406 448.953125 C 342.324219 448.953125 338.699219 451.425781 338.699219 456.375 C 338.699219 459.46875 340.464844 462.296875 343.648438 462.296875 C 345.769531 462.296875 347.359375 461.058594 348.332031 459.554688 L 348.421875 459.554688 L 348.6875 461.851562 L 351.871094 461.851562 C 351.605469 460.527344 351.605469 458.761719 351.605469 457.082031 Z M 348.15625 455.136719 C 348.15625 457.433594 346.566406 459.203125 344.710938 459.203125 C 343.382812 459.203125 342.234375 458.230469 342.234375 455.933594 C 342.234375 452.398438 345.417969 451.78125 348.15625 451.78125 Z M 365.660156 441.882812 L 362.917969 453.105469 C 362.652344 454.429688 362.300781 455.933594 362.035156 457.082031 L 361.945312 457.082031 C 361.683594 455.933594 361.328125 454.429688 361.0625 453.105469 L 357.96875 441.882812 L 354.078125 441.882812 L 359.914062 460.261719 C 360.003906 460.703125 360.089844 460.96875 360.089844 461.148438 C 360.089844 461.675781 358.765625 465.742188 355.050781 467.332031 L 356.023438 470.867188 C 356.820312 470.691406 358.410156 469.984375 359.914062 468.304688 C 361.945312 466.007812 363.273438 462.296875 365.304688 455.757812 L 369.371094 441.882812 Z M 383.605469 449.570312 C 383.605469 445.328125 382.277344 441.441406 377.328125 441.441406 C 375.03125 441.441406 373.085938 442.238281 371.847656 443.121094 L 372.644531 445.859375 C 373.703125 445.0625 375.207031 444.535156 376.710938 444.535156 C 380.070312 444.535156 380.070312 447.539062 380.070312 448.953125 C 374.324219 448.953125 370.699219 451.425781 370.699219 456.375 C 370.699219 459.46875 372.464844 462.296875 375.648438 462.296875 C 377.769531 462.296875 379.363281 461.058594 380.332031 459.554688 L 380.421875 459.554688 L 380.6875 461.851562 L 383.871094 461.851562 C 383.605469 460.527344 383.605469 458.761719 383.605469 457.082031 Z M 380.15625 455.136719 C 380.15625 457.433594 378.566406 459.203125 376.621094 459.203125 C 375.382812 459.203125 374.234375 458.230469 374.234375 455.933594 C 374.234375 452.398438 377.417969 451.78125 380.15625 451.78125 Z M 246.054688 373.3125 C 243.667969 372.164062 240.042969 371.101562 235.359375 371.101562 C 224.574219 371.101562 218.121094 377.199219 218.121094 385.152344 C 218.121094 391.515625 222.808594 396.109375 230.320312 399.203125 C 235.890625 401.589844 238.277344 403.621094 238.277344 407.15625 C 238.277344 410.777344 235.449219 413.253906 230.144531 413.253906 L 227.492188 413.074219 C 223.691406 412.8125 219.09375 414.226562 217.503906 418.378906 C 219.800781 419.703125 224.839844 421.027344 229.789062 421.027344 C 241.371094 421.027344 247.914062 414.84375 247.914062 406.359375 C 247.914062 400 244.375 395.492188 236.332031 392.046875 C 230.234375 389.304688 227.757812 387.714844 227.757812 384.269531 C 227.757812 381.53125 230.054688 378.527344 235.09375 378.878906 L 237.65625 378.96875 C 241.460938 379.234375 245.613281 377.289062 246.054688 373.3125 Z M 269.746094 371.808594 L 248.972656 420.410156 C 252.863281 422.089844 257.8125 421.734375 260.023438 416.523438 L 262.144531 411.21875 L 277.347656 411.21875 L 279.472656 416.523438 C 281.679688 421.734375 286.632812 422.089844 290.519531 420.410156 Z M 264.265625 404.152344 L 269.746094 390.898438 L 275.226562 404.152344 Z M 190.71875 412.546875 L 190.71875 399.027344 L 205.214844 399.027344 L 205.214844 391.425781 L 190.71875 391.425781 L 190.71875 379.585938 L 204.15625 379.585938 C 209.195312 379.585938 211.226562 375.519531 211.136719 371.808594 C 201.855469 371.808594 190.453125 371.808594 181.171875 371.808594 L 181.171875 420.410156 C 190.453125 420.410156 201.855469 420.410156 211.226562 420.410156 C 211.226562 416.609375 209.195312 412.546875 204.15625 412.546875 Z M 164.550781 399.378906 L 136.972656 371.808594 L 136.972656 420.410156 C 141.125 420.5 145.898438 418.203125 145.632812 412.632812 L 145.632812 391.957031 L 173.304688 420.410156 L 173.304688 371.808594 C 169.058594 371.722656 164.550781 373.929688 164.550781 379.585938 Z M 164.550781 399.378906 " fill-opacity="1" fill-rule="evenodd"/></g></svg>