<svg width="88" height="33" viewBox="0 0 88 33" fill="none" xmlns="http://www.w3.org/2000/svg">
<ellipse cx="21.5" cy="16.5" rx="6.5" ry="4.5" fill="black"/>
<path fill-rule="evenodd" clip-rule="evenodd" d="M20 -0.000213623C31.0457 -0.000213623 35.0001 -5.34058e-05 44 16.4998C35 32.9998 31.0457 32.9998 20 32.9998C8.9543 32.9998 0 25.6125 0 16.4998C0.000136368 7.38718 8.95439 -0.000213623 20 -0.000213623ZM20 4.99979C10.7729 4.99979 5.00015 11.0055 5 16.4998C5 21.9942 10.7727 27.9998 20 27.9998C25.8655 27.9998 28.1252 27.8713 30.2256 26.6316C32.2037 25.464 34.5677 22.9336 38.2676 16.4998C34.5677 10.066 32.2037 7.53552 30.2256 6.36795C28.1252 5.1283 25.8654 4.99979 20 4.99979Z" fill="black"/>
<path fill-rule="evenodd" clip-rule="evenodd" d="M68 0C56.9543 0 52.9999 0.000160217 44 16.5C53 33 56.9543 33 68 33C79.0457 33 88 25.6127 88 16.5C87.9999 7.3874 79.0456 0 68 0ZM68 5C77.2271 5 82.9999 11.0057 83 16.5C83 21.9944 77.2273 28 68 28C62.1345 28 59.8748 27.8715 57.7744 26.6318C55.7963 25.4642 53.4323 22.9338 49.7324 16.5C53.4323 10.0662 55.7963 7.53573 57.7744 6.36816C59.8748 5.12852 62.1346 5 68 5Z" fill="black"/>
<path d="M67 11C72.5228 11 77 14.356 77 18.4958C77 22.6355 72.5228 16.9177 67 16.9177C61.4772 16.9177 57 22.6355 57 18.4958C57 14.356 61.4772 11 67 11Z" fill="black"/>
<path d="M67 11C72.5228 11 77 14.356 77 18.4958C77 22.6355 72.5228 16.9177 67 16.9177C61.4772 16.9177 57 22.6355 57 18.4958C57 14.356 61.4772 11 67 11Z" fill="black"/>
</svg>
